# ProBuilder 5.2.2
# https://unity3d.com/unity/features/worldbuilding/probuilder
# 1/25/2024 10:51:16 PM

mtllib ./Ship.mtl
o Ship

g Prism
v -0.5 -0.5 -0.01041667
v 0 -0.25 -0.125
v 0 0.5 0
v 0.5 -0.5 0.01041667
v 0 -0.25 0.125
v 0 -0.25 0

vt 0.4741329 -0.5187832
vt -0.03728438 -0.2656396
vt 0 0.493791
vt 0.04173089 -0.2652578
vt -0.4747912 -0.5183243
vt 0 0
vt 0 -0.125
vt -0.5 -0.01041667
vt 0.5 0.01041667
vt 0 0.125

vn -0.294571 0.1571046 -0.9426273
vn 0.3298019 0.1552009 -0.9312053
vn 0.294571 0.1571046 0.9426273
vn -0.3298019 0.1552009 0.9312053
vn 0.4472136 -0.8944272 0
vn -0.4472136 -0.8944272 0

usemtl Lit
f 3/3/1 2/2/1 1/1/1
f 4/5/2 2/4/2 3/3/2
f 3/3/3 5/2/3 4/1/3
f 1/5/4 5/4/4 3/3/4
f 1/8/5 2/7/5 6/6/5
f 6/6/6 2/7/6 4/9/6
f 1/8/5 6/6/5 5/10/5
f 5/10/6 6/6/6 4/9/6

